<?xml version="1.0" encoding="UTF-8" standalone="no" ?>
<!DOCTYPE svg PUBLIC "-//W3C//DTD SVG 1.1//EN" "http://www.w3.org/Graphics/SVG/1.1/DTD/svg11.dtd">
<svg xmlns="http://www.w3.org/2000/svg" xmlns:xlink="http://www.w3.org/1999/xlink" version="1.1" width="1200" height="628" viewBox="0 0 1200 628" xml:space="preserve">
<desc>Created with Fabric.js 5.2.4</desc>
<defs>
</defs>
<rect x="0" y="0" width="100%" height="100%" fill="transparent"></rect>
<g transform="matrix(1 0 0 1 600 314)" id="f8ee7bb6-870d-4809-943e-7c0dceadffdb"  >
<rect style="stroke: none; stroke-width: 1; stroke-dasharray: none; stroke-linecap: butt; stroke-dashoffset: 0; stroke-linejoin: miter; stroke-miterlimit: 4; fill: rgb(255,255,255); fill-rule: nonzero; opacity: 1; visibility: hidden;" vector-effect="non-scaling-stroke"  x="-600" y="-314" rx="0" ry="0" width="1200" height="628" />
</g>
<g transform="matrix(Infinity NaN NaN Infinity 0 0)" id="1ce984e5-f84f-4891-b820-b47e89b6001b"  >
</g>
<g transform="matrix(2.12 0 0 2.89 600 318.77)"  >
<g style="" vector-effect="non-scaling-stroke"   >
		<g transform="matrix(1 0 0 1 -225.27 -4.34)"  >
<rect style="stroke: none; stroke-width: 1; stroke-dasharray: none; stroke-linecap: butt; stroke-dashoffset: 0; stroke-linejoin: miter; stroke-miterlimit: 4; fill: rgb(255,255,255); fill-opacity: 0; fill-rule: nonzero; opacity: 1;" vector-effect="non-scaling-stroke"  x="-50" y="-50" rx="0" ry="0" width="100" height="100" />
</g>
		<g transform="matrix(1 0 0 1 -248.54 -4.06)"  >
<linearGradient id="SVGID_a_3" gradientUnits="objectBoundingBox" gradientTransform="matrix(1 0 0 1 0 0)"  x1="-0.07" y1="0" x2="6.63" y2="0">
<stop offset="0%" style="stop-color:rgb(110,226,245);stop-opacity: 1"/>
<stop offset="100%" style="stop-color:rgb(100,84,240);stop-opacity: 1"/>
</linearGradient>
<path style="stroke: none; stroke-width: 1; stroke-dasharray: none; stroke-linecap: butt; stroke-dashoffset: 0; stroke-linejoin: miter; stroke-miterlimit: 4; fill: url(#SVGID_a_3); fill-rule: nonzero; opacity: 1;" vector-effect="non-scaling-stroke"  transform=" translate(-154.05, -397.34)" d="M 132.65 363.24 L 174.45 363.24 L 174.45 370.94 L 141.04999999999998 370.94 L 141.04999999999998 392.74 L 172.04999999999998 392.74 L 172.04999999999998 400.24 L 141.04999999999998 400.24 L 141.04999999999998 423.74 L 175.45 423.74 L 175.45 431.44 L 132.64999999999998 431.44 Z" stroke-linecap="round" />
</g>
		<g transform="matrix(1 0 0 1 -248.04 -3.56)"  >
<rect style="stroke: none; stroke-width: 1; stroke-dasharray: none; stroke-linecap: butt; stroke-dashoffset: 0; stroke-linejoin: miter; stroke-miterlimit: 4; fill: none; fill-rule: nonzero; opacity: 1;" vector-effect="non-scaling-stroke"  x="-21.4" y="-34.1" rx="0" ry="0" width="42.8" height="68.2" />
</g>
		<g transform="matrix(1 0 0 1 -202.8 4.34)"  >
<linearGradient id="SVGID_b_4" gradientUnits="objectBoundingBox" gradientTransform="matrix(1 0 0 1 0 0)"  x1="-1.54" y1="0" x2="8.56" y2="0">
<stop offset="0%" style="stop-color:rgb(110,226,245);stop-opacity: 1"/>
<stop offset="100%" style="stop-color:rgb(100,84,240);stop-opacity: 1"/>
</linearGradient>
<path style="stroke: none; stroke-width: 1; stroke-dasharray: none; stroke-linecap: butt; stroke-dashoffset: 0; stroke-linejoin: miter; stroke-miterlimit: 4; fill: url(#SVGID_b_4); fill-rule: nonzero; opacity: 1;" vector-effect="non-scaling-stroke"  transform=" translate(-199.8, -405.74)" d="M 186.45 402.04 L 213.14999999999998 402.04 L 213.14999999999998 409.44 L 186.45 409.44 Z" stroke-linecap="round" />
</g>
		<g transform="matrix(1 0 0 1 -202.3 4.84)"  >
<rect style="stroke: none; stroke-width: 1; stroke-dasharray: none; stroke-linecap: butt; stroke-dashoffset: 0; stroke-linejoin: miter; stroke-miterlimit: 4; fill: none; fill-rule: nonzero; opacity: 1;" vector-effect="non-scaling-stroke"  x="-13.35" y="-3.7" rx="0" ry="0" width="26.7" height="7.4" />
</g>
		<g transform="matrix(1 0 0 1 -176.14 6.89)"  >
<linearGradient id="SVGID_c_5" gradientUnits="objectBoundingBox" gradientTransform="matrix(1 0 0 1 0 0)"  x1="-4.43" y1="0" x2="13.94" y2="0">
<stop offset="0%" style="stop-color:rgb(110,226,245);stop-opacity: 1"/>
<stop offset="100%" style="stop-color:rgb(100,84,240);stop-opacity: 1"/>
</linearGradient>
<path style="stroke: none; stroke-width: 1; stroke-dasharray: none; stroke-linecap: butt; stroke-dashoffset: 0; stroke-linejoin: miter; stroke-miterlimit: 4; fill: url(#SVGID_c_5); fill-rule: nonzero; opacity: 1;" vector-effect="non-scaling-stroke"  transform=" translate(-226.45, -408.29)" d="M 234.55 380.04 L 234.55 430.54 Q 234.55 439.54 231.25 445.39000000000004 Q 227.95 451.24000000000007 220.95 455.24000000000007 L 216.85 448.14000000000004 Q 219.85 446.34000000000003 221.75 444.19000000000005 Q 223.65 442.0400000000001 224.7 439.59000000000003 Q 225.75 437.14000000000004 226.14999999999998 434.59000000000003 Q 226.54999999999998 432.04 226.54999999999998 429.44000000000005 L 226.54999999999998 381.24000000000007 Z M 224.95000000000002 366.74 Q 224.95000000000002 364.44 226.50000000000003 362.89 Q 228.05000000000004 361.34 230.35000000000002 361.34 Q 232.75000000000003 361.34 234.40000000000003 362.89 Q 236.05000000000004 364.44 236.05000000000004 366.74 Q 236.05000000000004 369.04 234.40000000000003 370.59000000000003 Q 232.75000000000003 372.14000000000004 230.35000000000002 372.14000000000004 Q 228.05 372.14000000000004 226.50000000000003 370.59000000000003 Q 224.95000000000002 369.04 224.95000000000002 366.74" stroke-linecap="round" />
</g>
		<g transform="matrix(1 0 0 1 -175.64 7.39)"  >
<rect style="stroke: none; stroke-width: 1; stroke-dasharray: none; stroke-linecap: butt; stroke-dashoffset: 0; stroke-linejoin: miter; stroke-miterlimit: 4; fill: none; fill-rule: nonzero; opacity: 1;" vector-effect="non-scaling-stroke"  x="-9.6" y="-46.95" rx="0" ry="0" width="19.2" height="93.9" />
</g>
		<g transform="matrix(1 0 0 1 -132.14 5.04)"  >
<linearGradient id="SVGID_d_6" gradientUnits="objectBoundingBox" gradientTransform="matrix(1 0 0 1 0 0)"  x1="-2.12" y1="0" x2="4.44" y2="0">
<stop offset="0%" style="stop-color:rgb(110,226,245);stop-opacity: 1"/>
<stop offset="100%" style="stop-color:rgb(100,84,240);stop-opacity: 1"/>
</linearGradient>
<path style="stroke: none; stroke-width: 1; stroke-dasharray: none; stroke-linecap: butt; stroke-dashoffset: 0; stroke-linejoin: miter; stroke-miterlimit: 4; fill: url(#SVGID_d_6); fill-rule: nonzero; opacity: 1;" vector-effect="non-scaling-stroke"  transform=" translate(-270.45, -406.44)" d="M 254.65 406.54 Q 254.65 416.24 259 420.99 Q 263.35 425.74 270.75 425.74 Q 278.05 425.74 282.15 421.04 Q 286.25 416.34000000000003 286.25 406.94 Q 286.25 396.94 281.9 392.04 Q 277.54999999999995 387.14000000000004 270.04999999999995 387.14000000000004 Q 262.54999999999995 387.14000000000004 258.59999999999997 391.99000000000007 Q 254.64999999999998 396.8400000000001 254.64999999999998 406.5400000000001 M 246.14999999999998 406.44000000000005 Q 246.14999999999998 398.84000000000003 248.54999999999998 393.7900000000001 Q 250.95 388.74000000000007 254.64999999999998 385.69000000000005 Q 258.34999999999997 382.64000000000004 262.59999999999997 381.39000000000004 Q 266.84999999999997 380.14000000000004 270.65 380.14000000000004 Q 274.25 380.14000000000004 278.5 381.29 Q 282.75 382.44 286.35 385.39000000000004 Q 289.95000000000005 388.34000000000003 292.35 393.29 Q 294.75 398.24 294.75 405.84000000000003 Q 294.75 413.74 292.3 418.94000000000005 Q 289.85 424.14000000000004 286.15000000000003 427.19000000000005 Q 282.45000000000005 430.24000000000007 278.15000000000003 431.49000000000007 Q 273.85 432.74000000000007 270.15000000000003 432.74000000000007 Q 266.35 432.74000000000007 262.15000000000003 431.5400000000001 Q 257.95000000000005 430.3400000000001 254.40000000000003 427.3900000000001 Q 250.85000000000002 424.4400000000001 248.50000000000003 419.3400000000001 Q 246.15000000000003 414.24000000000007 246.15000000000003 406.4400000000001" stroke-linecap="round" />
</g>
		<g transform="matrix(1 0 0 1 -131.64 5.54)"  >
<rect style="stroke: none; stroke-width: 1; stroke-dasharray: none; stroke-linecap: butt; stroke-dashoffset: 0; stroke-linejoin: miter; stroke-miterlimit: 4; fill: none; fill-rule: nonzero; opacity: 1;" vector-effect="non-scaling-stroke"  x="-24.3" y="-26.3" rx="0" ry="0" width="48.6" height="52.6" />
</g>
		<g transform="matrix(1 0 0 1 -77.09 5.54)"  >
<linearGradient id="SVGID_e_7" gradientUnits="objectBoundingBox" gradientTransform="matrix(1 0 0 1 0 0)"  x1="-3.41" y1="0" x2="3.85" y2="0">
<stop offset="0%" style="stop-color:rgb(110,226,245);stop-opacity: 1"/>
<stop offset="100%" style="stop-color:rgb(100,84,240);stop-opacity: 1"/>
</linearGradient>
<path style="stroke: none; stroke-width: 1; stroke-dasharray: none; stroke-linecap: butt; stroke-dashoffset: 0; stroke-linejoin: miter; stroke-miterlimit: 4; fill: url(#SVGID_e_7); fill-rule: nonzero; opacity: 1;" vector-effect="non-scaling-stroke"  transform=" translate(-325.5, -406.94)" d="M 336.45 425.94 L 336.25 425.94 Q 335.35 426.64 333.65 427.79 Q 331.95 428.94 329.75 430.04 Q 327.55 431.14000000000004 324.9 431.94 Q 322.25 432.74 319.54999999999995 432.74 Q 315.84999999999997 432.74 313.24999999999994 431.79 Q 310.6499999999999 430.84000000000003 309.04999999999995 428.64000000000004 Q 307.45 426.44000000000005 306.74999999999994 422.84000000000003 Q 306.04999999999995 419.24 306.04999999999995 413.84000000000003 L 306.04999999999995 381.14000000000004 L 314.04999999999995 381.14000000000004 L 314.04999999999995 412.64000000000004 Q 314.04999999999995 415.64000000000004 314.15 418.04 Q 314.25 420.44 314.84999999999997 422.14000000000004 Q 315.45 423.84000000000003 316.79999999999995 424.79 Q 318.1499999999999 425.74 320.65 425.74 Q 323.25 425.74 326.04999999999995 424.64 Q 328.84999999999997 423.53999999999996 331.15 422.14 Q 333.84999999999997 420.53999999999996 336.45 418.53999999999996 L 336.45 381.14 L 344.45 381.14 L 344.45 424.94 Q 344.55 428.54 344.95 431.44 L 337.05 432.24 Z" stroke-linecap="round" />
</g>
		<g transform="matrix(1 0 0 1 -76.59 6.04)"  >
<rect style="stroke: none; stroke-width: 1; stroke-dasharray: none; stroke-linecap: butt; stroke-dashoffset: 0; stroke-linejoin: miter; stroke-miterlimit: 4; fill: none; fill-rule: nonzero; opacity: 1;" vector-effect="non-scaling-stroke"  x="-19.45" y="-25.8" rx="0" ry="0" width="38.9" height="51.6" />
</g>
		<g transform="matrix(1 0 0 1 -31.39 4.37)"  >
<linearGradient id="SVGID_f_8" gradientUnits="objectBoundingBox" gradientTransform="matrix(1 0 0 1 0 0)"  x1="-6.88" y1="0" x2="5" y2="0">
<stop offset="0%" style="stop-color:rgb(110,226,245);stop-opacity: 1"/>
<stop offset="100%" style="stop-color:rgb(100,84,240);stop-opacity: 1"/>
</linearGradient>
<path style="stroke: none; stroke-width: 1; stroke-dasharray: none; stroke-linecap: butt; stroke-dashoffset: 0; stroke-linejoin: miter; stroke-miterlimit: 4; fill: url(#SVGID_f_8); fill-rule: nonzero; opacity: 1;" vector-effect="non-scaling-stroke"  transform=" translate(-371.2, -405.77)" d="M 359.05 389.24 Q 359.05 386.94 358.55 382.04 L 365.95 381.04 L 366.75 388.34000000000003 L 366.85 388.34000000000003 Q 368.65000000000003 386.04 370.35 384.34000000000003 Q 372.05 382.64000000000004 373.90000000000003 381.39000000000004 Q 375.75000000000006 380.14000000000004 377.45000000000005 380.14000000000004 Q 379.75000000000006 380.04 383.85 380.64000000000004 L 382.05 388.34000000000003 Q 378.75 387.74 377.45 387.84000000000003 Q 375.75 387.84000000000003 373.84999999999997 389.44000000000005 Q 371.95 391.0400000000001 370.54999999999995 392.84000000000003 Q 368.74999999999994 395.04 367.04999999999995 397.84000000000003 L 367.04999999999995 431.44000000000005 L 359.04999999999995 431.44000000000005 Z" stroke-linecap="round" />
</g>
		<g transform="matrix(1 0 0 1 -30.89 4.86)"  >
<rect style="stroke: none; stroke-width: 1; stroke-dasharray: none; stroke-linecap: butt; stroke-dashoffset: 0; stroke-linejoin: miter; stroke-miterlimit: 4; fill: none; fill-rule: nonzero; opacity: 1;" vector-effect="non-scaling-stroke"  x="-12.65" y="-25.675" rx="0" ry="0" width="25.3" height="51.35" />
</g>
		<g transform="matrix(1 0 0 1 10.16 4.39)"  >
<linearGradient id="SVGID_g_9" gradientUnits="objectBoundingBox" gradientTransform="matrix(1 0 0 1 0 0)"  x1="-4.85" y1="0" x2="2.08" y2="0">
<stop offset="0%" style="stop-color:rgb(110,226,245);stop-opacity: 1"/>
<stop offset="100%" style="stop-color:rgb(100,84,240);stop-opacity: 1"/>
</linearGradient>
<path style="stroke: none; stroke-width: 1; stroke-dasharray: none; stroke-linecap: butt; stroke-dashoffset: 0; stroke-linejoin: miter; stroke-miterlimit: 4; fill: url(#SVGID_g_9); fill-rule: nonzero; opacity: 1;" vector-effect="non-scaling-stroke"  transform=" translate(-412.75, -405.79)" d="M 392.75 391.14 Q 392.85 389.03999999999996 392.25 382.03999999999996 L 399.65 381.03999999999996 L 400.75 387.43999999999994 Q 403.75 385.43999999999994 406.7 383.93999999999994 Q 409.65 382.43999999999994 412.75 381.28999999999996 Q 415.85 380.14 418.75 380.14 Q 422.85 380.14 425.6 381.09 Q 428.35 382.03999999999996 430.05 384.23999999999995 Q 431.75 386.43999999999994 432.5 390.03999999999996 Q 433.25 393.64 433.25 399.03999999999996 L 433.25 431.43999999999994 L 425.25 431.43999999999994 L 425.25 399.93999999999994 Q 425.25 396.93999999999994 425.15 394.5899999999999 Q 425.04999999999995 392.2399999999999 424.29999999999995 390.5899999999999 Q 423.54999999999995 388.93999999999994 421.99999999999994 388.0399999999999 Q 420.44999999999993 387.13999999999993 417.6499999999999 387.13999999999993 Q 415.0499999999999 387.13999999999993 412.1499999999999 388.2899999999999 Q 409.24999999999994 389.4399999999999 406.44999999999993 390.9399999999999 Q 403.6499999999999 392.4399999999999 400.74999999999994 394.4399999999999 L 400.74999999999994 431.4399999999999 L 392.74999999999994 431.4399999999999 Z" stroke-linecap="round" />
</g>
		<g transform="matrix(1 0 0 1 10.66 4.89)"  >
<rect style="stroke: none; stroke-width: 1; stroke-dasharray: none; stroke-linecap: butt; stroke-dashoffset: 0; stroke-linejoin: miter; stroke-miterlimit: 4; fill: none; fill-rule: nonzero; opacity: 1;" vector-effect="non-scaling-stroke"  x="-20.5" y="-25.65" rx="0" ry="0" width="41" height="51.3" />
</g>
		<g transform="matrix(1 0 0 1 60.96 5.04)"  >
<linearGradient id="SVGID_h_10" gradientUnits="objectBoundingBox" gradientTransform="matrix(1 0 0 1 0 0)"  x1="-6.39" y1="0" x2="1.27" y2="0">
<stop offset="0%" style="stop-color:rgb(110,226,245);stop-opacity: 1"/>
<stop offset="100%" style="stop-color:rgb(100,84,240);stop-opacity: 1"/>
</linearGradient>
<path style="stroke: none; stroke-width: 1; stroke-dasharray: none; stroke-linecap: butt; stroke-dashoffset: 0; stroke-linejoin: miter; stroke-miterlimit: 4; fill: url(#SVGID_h_10); fill-rule: nonzero; opacity: 1;" vector-effect="non-scaling-stroke"  transform=" translate(-463.55, -406.44)" d="M 475.35 408.34 Q 473.35 408.44 471.55 408.53999999999996 Q 469.75 408.64 468 408.78999999999996 Q 466.25 408.93999999999994 464.85 409.14 Q 457.65000000000003 410.03999999999996 454.65000000000003 412.28999999999996 Q 451.65000000000003 414.53999999999996 451.65000000000003 418.73999999999995 Q 451.65000000000003 422.23999999999995 453.8 423.98999999999995 Q 455.95 425.73999999999995 459.45 425.73999999999995 Q 464.25 425.73999999999995 468 424.09 Q 471.75 422.44 475.35 419.73999999999995 Z M 475.25 426.73999999999995 Q 470.55 429.43999999999994 466.5 431.09 Q 462.45 432.73999999999995 457.75 432.73999999999995 Q 451.05 432.73999999999995 447.1 429.48999999999995 Q 443.15000000000003 426.23999999999995 443.15000000000003 418.73999999999995 Q 443.15000000000003 414.84 445.15000000000003 411.93999999999994 Q 447.15000000000003 409.0399999999999 450.40000000000003 407.0899999999999 Q 453.65000000000003 405.13999999999993 457.75000000000006 404.0399999999999 Q 461.8500000000001 402.9399999999999 466.15000000000003 402.63999999999993 Q 467.95000000000005 402.43999999999994 470.85 402.2899999999999 Q 473.75 402.13999999999993 475.35 402.0399999999999 Q 475.35 398.5399999999999 475.15000000000003 395.7899999999999 Q 474.95000000000005 393.0399999999999 473.95000000000005 391.0899999999999 Q 472.95000000000005 389.13999999999993 471.00000000000006 388.13999999999993 Q 469.05000000000007 387.13999999999993 465.45000000000005 387.13999999999993 Q 462.55000000000007 387.13999999999993 459.85 387.48999999999995 Q 457.15000000000003 387.84 455.05 388.23999999999995 Q 452.55 388.73999999999995 450.45 389.34 L 448.84999999999997 382.44 Q 451.34999999999997 381.84 454.24999999999994 381.34 Q 456.74999999999994 380.84 460.04999999999995 380.48999999999995 Q 463.34999999999997 380.13999999999993 467.15 380.13999999999993 Q 472.25 380.13999999999993 475.4 381.63999999999993 Q 478.54999999999995 383.13999999999993 480.29999999999995 385.68999999999994 Q 482.04999999999995 388.23999999999995 482.69999999999993 391.48999999999995 Q 483.3499999999999 394.73999999999995 483.3499999999999 398.34 L 483.3499999999999 422.34 Q 483.3499999999999 423.73999999999995 483.3999999999999 425.28999999999996 Q 483.44999999999993 426.84 483.5999999999999 428.34 Q 483.7499999999999 429.84 483.94999999999993 431.44 L 476.24999999999994 432.24 Z" stroke-linecap="round" />
</g>
		<g transform="matrix(1 0 0 1 61.46 5.54)"  >
<rect style="stroke: none; stroke-width: 1; stroke-dasharray: none; stroke-linecap: butt; stroke-dashoffset: 0; stroke-linejoin: miter; stroke-miterlimit: 4; fill: none; fill-rule: nonzero; opacity: 1;" vector-effect="non-scaling-stroke"  x="-20.4" y="-26.3" rx="0" ry="0" width="40.8" height="52.6" />
</g>
		<g transform="matrix(1 0 0 1 98.86 -7.86)"  >
<linearGradient id="SVGID_i_11" gradientUnits="objectBoundingBox" gradientTransform="matrix(1 0 0 1 0 0)"  x1="-16.53" y1="0" x2="1.85" y2="0">
<stop offset="0%" style="stop-color:rgb(110,226,245);stop-opacity: 1"/>
<stop offset="100%" style="stop-color:rgb(100,84,240);stop-opacity: 1"/>
</linearGradient>
<path style="stroke: none; stroke-width: 1; stroke-dasharray: none; stroke-linecap: butt; stroke-dashoffset: 0; stroke-linejoin: miter; stroke-miterlimit: 4; fill: url(#SVGID_i_11); fill-rule: nonzero; opacity: 1;" vector-effect="non-scaling-stroke"  transform=" translate(-501.45, -393.54)" d="M 497.45 356.54 L 505.45 355.64000000000004 L 505.45 431.44000000000005 L 497.45 431.44000000000005 Z" stroke-linecap="round" />
</g>
		<g transform="matrix(1 0 0 1 99.36 -7.36)"  >
<rect style="stroke: none; stroke-width: 1; stroke-dasharray: none; stroke-linecap: butt; stroke-dashoffset: 0; stroke-linejoin: miter; stroke-miterlimit: 4; fill: none; fill-rule: nonzero; opacity: 1;" vector-effect="non-scaling-stroke"  x="-4" y="-37.9" rx="0" ry="0" width="8" height="75.8" />
</g>
		<g transform="matrix(1 0 0 1 131.16 5.04)"  >
<linearGradient id="SVGID_j_12" gradientUnits="objectBoundingBox" gradientTransform="matrix(1 0 0 1 0 0)"  x1="-9.42" y1="0" x2="-0.01" y2="0">
<stop offset="0%" style="stop-color:rgb(110,226,245);stop-opacity: 1"/>
<stop offset="100%" style="stop-color:rgb(100,84,240);stop-opacity: 1"/>
</linearGradient>
<path style="stroke: none; stroke-width: 1; stroke-dasharray: none; stroke-linecap: butt; stroke-dashoffset: 0; stroke-linejoin: miter; stroke-miterlimit: 4; fill: url(#SVGID_j_12); fill-rule: nonzero; opacity: 1;" vector-effect="non-scaling-stroke"  transform=" translate(-533.75, -406.44)" d="M 547.05 389.34 Q 542.8499999999999 388.03999999999996 539.5999999999999 387.59 Q 536.3499999999999 387.14 533.6499999999999 387.14 Q 530.1499999999999 387.14 527.7999999999998 388.84 Q 525.4499999999998 390.53999999999996 525.4499999999998 393.23999999999995 Q 525.5499999999998 395.63999999999993 527.5499999999998 397.34 Q 529.5499999999998 399.03999999999996 532.1999999999998 400.39 Q 534.8499999999998 401.74 538.0999999999998 403.34 Q 541.3499999999998 404.94 544.1999999999998 406.94 Q 547.0499999999998 408.94 548.8499999999998 411.74 Q 550.6499999999997 414.54 550.7499999999998 418.44 Q 550.6499999999997 422.64 548.8999999999997 425.39 Q 547.1499999999997 428.14 544.3999999999997 429.78999999999996 Q 541.6499999999997 431.43999999999994 538.4499999999997 432.09 Q 535.2499999999997 432.73999999999995 532.4499999999997 432.73999999999995 Q 528.8499999999997 432.73999999999995 524.9999999999997 432.34 Q 521.1499999999996 431.94 516.7499999999997 430.64 L 518.2499999999997 423.44 Q 522.7499999999997 424.64 526.4499999999997 425.19 Q 530.1499999999997 425.74 532.5499999999997 425.74 Q 534.3499999999997 425.74 536.0999999999997 425.34000000000003 Q 537.8499999999997 424.94000000000005 539.2499999999997 424.19000000000005 Q 540.6499999999996 423.44000000000005 541.4999999999997 422.24000000000007 Q 542.3499999999997 421.0400000000001 542.3499999999997 419.5400000000001 Q 542.2499999999997 416.74000000000007 540.4499999999997 414.7900000000001 Q 538.6499999999997 412.8400000000001 535.7999999999997 411.2900000000001 Q 532.9499999999997 409.74000000000007 529.6999999999997 408.19000000000005 Q 526.4499999999997 406.64000000000004 523.5999999999997 404.59000000000003 Q 520.7499999999997 402.54 518.8499999999997 399.69000000000005 Q 516.9499999999997 396.84000000000003 516.9499999999997 392.64000000000004 Q 516.9499999999997 389.64000000000004 518.4999999999997 387.29 Q 520.0499999999996 384.94 522.4999999999997 383.39000000000004 Q 524.9499999999997 381.84000000000003 527.8999999999996 380.99000000000007 Q 530.8499999999997 380.14000000000004 533.6499999999996 380.14000000000004 Q 536.5499999999996 380.14000000000004 540.1499999999996 380.59000000000003 Q 543.7499999999997 381.04 548.4499999999996 382.24 Z" stroke-linecap="round" />
</g>
		<g transform="matrix(1 0 0 1 131.66 5.54)"  >
<rect style="stroke: none; stroke-width: 1; stroke-dasharray: none; stroke-linecap: butt; stroke-dashoffset: 0; stroke-linejoin: miter; stroke-miterlimit: 4; fill: none; fill-rule: nonzero; opacity: 1;" vector-effect="non-scaling-stroke"  x="-17" y="-26.3" rx="0" ry="0" width="34" height="52.6" />
</g>
		<g transform="matrix(2.15 0 0 2.15 196.63 -43.6)"  >
<linearGradient id="SVGID_k_13" gradientUnits="objectBoundingBox" gradientTransform="matrix(1 0 0 1 0 0)"  x1="0" y1="0" x2="1" y2="0">
<stop offset="0%" style="stop-color:rgb(110,226,245);stop-opacity: 1"/>
<stop offset="100%" style="stop-color:rgb(100,84,240);stop-opacity: 1"/>
</linearGradient>
<path style="stroke: none; stroke-width: 1; stroke-dasharray: none; stroke-linecap: butt; stroke-dashoffset: 0; stroke-linejoin: miter; stroke-miterlimit: 4; fill: url(#SVGID_k_13); fill-rule: nonzero; opacity: 1;" vector-effect="non-scaling-stroke"  transform=" translate(-11.37, -4.62)" d="M 11.368 9.203 C 10.82162866272893 9.202448109478855 10.378999721267341 8.759371616003657 10.379 8.213 L 10.379 0.99 C 10.395985821156696 0.45575607743956525 10.833986120934988 0.03146029243346338 11.368500000000001 0.03146029243346338 C 11.903013879065012 0.03146029243346338 12.341014178843304 0.4557560774395655 12.358 0.9900000000000002 L 12.358 8.214 C 12.357448109478856 8.76037133727107 11.914371616003656 9.20300027873266 11.368 9.203000000000001" stroke-linecap="round" />
</g>
		<g transform="matrix(2.15 0 0 2.15 214.71 -43.64)"  >
<linearGradient id="SVGID_l_14" gradientUnits="objectBoundingBox" gradientTransform="matrix(1 0 0 1 0 0)"  x1="0" y1="0" x2="1" y2="0">
<stop offset="0%" style="stop-color:rgb(110,226,245);stop-opacity: 1"/>
<stop offset="100%" style="stop-color:rgb(100,84,240);stop-opacity: 1"/>
</linearGradient>
<path style="stroke: none; stroke-width: 1; stroke-dasharray: none; stroke-linecap: butt; stroke-dashoffset: 0; stroke-linejoin: miter; stroke-miterlimit: 4; fill: url(#SVGID_l_14); fill-rule: nonzero; opacity: 1;" vector-effect="non-scaling-stroke"  transform=" translate(-19.79, -4.6)" d="M 19.79 9.203 C 19.243238097667515 9.203 18.8 8.759761902332484 18.8 8.213 L 18.8 0.99 C 18.8 0.4432380976675143 19.243238097667515 -2.220446049250313e-16 19.79 -2.220446049250313e-16 C 20.336761902332487 -2.220446049250313e-16 20.78 0.4432380976675141 20.78 0.9899999999999998 L 20.78 8.214 C 20.779448109478857 8.76037133727107 20.33637161600366 9.203000278732658 19.790000000000003 9.203000000000001" stroke-linecap="round" />
</g>
		<g transform="matrix(2.15 0 0 2.15 232.8 -43.67)"  >
<linearGradient id="SVGID_m_15" gradientUnits="objectBoundingBox" gradientTransform="matrix(1 0 0 1 0 0)"  x1="0" y1="0" x2="1" y2="0">
<stop offset="0%" style="stop-color:rgb(110,226,245);stop-opacity: 1"/>
<stop offset="100%" style="stop-color:rgb(100,84,240);stop-opacity: 1"/>
</linearGradient>
<path style="stroke: none; stroke-width: 1; stroke-dasharray: none; stroke-linecap: butt; stroke-dashoffset: 0; stroke-linejoin: miter; stroke-miterlimit: 4; fill: url(#SVGID_m_15); fill-rule: nonzero; opacity: 1;" vector-effect="non-scaling-stroke"  transform=" translate(-28.21, -4.59)" d="M 28.21 9.203 C 27.94752753854214 9.203000134171809 27.695819853374957 9.098664959032265 27.51031760243339 8.912975142619572 C 27.32481535149182 8.727285326206882 27.220734608229026 8.475472327286086 27.221 8.213 L 27.221 0.99 C 27.209521822303465 0.6289843846896286 27.39556881014802 0.2903696851413793 27.706444616393934 0.10646684081288138 C 28.01732042263985 -0.07743600351561652 28.403679577360148 -0.07743600351561652 28.714555383606065 0.10646684081288116 C 29.02543118985198 0.29036968514137895 29.211478177696534 0.628984384689629 29.2 0.9900000000000004 L 29.2 8.214 C 29.199448109478855 8.76037133727107 28.75637161600366 9.203000278732658 28.21 9.203000000000001" stroke-linecap="round" />
</g>
		<g transform="matrix(2.15 0 0 2.15 250.87 -43.67)"  >
<linearGradient id="SVGID_n_16" gradientUnits="objectBoundingBox" gradientTransform="matrix(1 0 0 1 0 0)"  x1="0" y1="0" x2="1" y2="0">
<stop offset="0%" style="stop-color:rgb(110,226,245);stop-opacity: 1"/>
<stop offset="100%" style="stop-color:rgb(100,84,240);stop-opacity: 1"/>
</linearGradient>
<path style="stroke: none; stroke-width: 1; stroke-dasharray: none; stroke-linecap: butt; stroke-dashoffset: 0; stroke-linejoin: miter; stroke-miterlimit: 4; fill: url(#SVGID_n_16); fill-rule: nonzero; opacity: 1;" vector-effect="non-scaling-stroke"  transform=" translate(-36.63, -4.59)" d="M 36.632 9.203 C 36.36952753854214 9.203000134171807 36.117819853374954 9.098664959032263 35.932317602433386 8.912975142619572 C 35.746815351491826 8.72728532620688 35.64273460822903 8.475472327286086 35.643 8.213 L 35.643 0.99 C 35.63152182230347 0.6289843846896286 35.81756881014802 0.2903696851413793 36.128444616393935 0.10646684081288138 C 36.43932042263985 -0.07743600351561652 36.82567957736015 -0.07743600351561652 37.136555383606066 0.10646684081288116 C 37.447431189851976 0.29036968514137895 37.63347817769653 0.628984384689629 37.622 0.9900000000000004 L 37.622 8.214 C 37.621448109478855 8.76037133727107 37.17837161600365 9.20300027873266 36.632 9.203000000000001" stroke-linecap="round" />
</g>
		<g transform="matrix(2.15 0 0 2.15 223.75 1.87)"  >
<linearGradient id="SVGID_o_17" gradientUnits="objectBoundingBox" gradientTransform="matrix(1 0 0 1 0 0)"  x1="0" y1="0" x2="1" y2="0">
<stop offset="0%" style="stop-color:rgb(110,226,245);stop-opacity: 1"/>
<stop offset="100%" style="stop-color:rgb(100,84,240);stop-opacity: 1"/>
</linearGradient>
<path style="stroke: none; stroke-width: 1; stroke-dasharray: none; stroke-linecap: butt; stroke-dashoffset: 0; stroke-linejoin: miter; stroke-miterlimit: 4; fill: url(#SVGID_o_17); fill-rule: nonzero; opacity: 1;" vector-effect="non-scaling-stroke"  transform=" translate(-24, -25.81)" d="M 47.011 3.612 L 0.99 3.612 C 0.44323809766751443 3.612 0 4.055238097667514 0 4.602 L 0 47.010999999999996 C 0 47.55799999999999 0.443 47.99999999999999 0.99 47.99999999999999 L 47.011 47.99999999999999 C 47.27338047254164 48.00026570194876 47.52509089988408 47.89615311291228 47.71062200639818 47.710622006398175 C 47.89615311291229 47.52509089988407 48.00026570194877 47.27338047254163 48 47.010999999999996 L 48 4.602 C 48.000265391770974 4.339527672713913 47.896184648508175 4.087714673793119 47.710682397566615 3.902024857380428 C 47.52518014662505 3.7163350409677367 47.273472461457864 3.6119998658281913 47.011 3.612 M 37.422000000000004 41.188 L 10.578 41.188 C 9.758133288876186 41.188 9.093499999999999 40.52336671112381 9.093499999999999 39.703500000000005 C 9.093499999999999 38.88363328887619 9.758133288876186 38.219 10.578 38.219 L 37.422 38.219 C 38.24186671112381 38.219 38.906499999999994 38.88363328887619 38.906499999999994 39.7035 C 38.9065 40.52336671112381 38.24186671112381 41.188 37.422 41.188 M 37.422 34.024 L 10.578 34.024 C 9.758409431251103 34.024 9.094 33.3595905687489 9.094 32.54 C 9.094 31.720409431251102 9.758409431251103 31.056 10.578 31.056 L 37.422 31.056 C 38.2415905687489 31.056 38.906 31.720409431251102 38.906 32.54 C 38.906 33.3595905687489 38.2415905687489 34.024 37.422 34.024 M 37.422 26.86 L 10.578 26.86 C 9.758409431251103 26.86 9.094 26.195590568748898 9.094 25.375999999999998 C 9.094 24.5564094312511 9.758409431251103 23.892 10.578 23.892 L 37.422 23.892 C 38.2415905687489 23.892 38.906 24.5564094312511 38.906 25.375999999999998 C 38.906 26.195590568748898 38.2415905687489 26.86 37.422 26.86 M 37.422 19.698999999999998 L 10.578 19.698999999999998 C 9.758133288876186 19.698999999999998 9.093499999999999 19.03436671112381 9.093499999999999 18.214499999999997 C 9.093499999999999 17.394633288876186 9.758133288876186 16.729999999999997 10.578 16.729999999999997 L 37.422 16.729999999999997 C 38.24186671112381 16.729999999999997 38.906499999999994 17.394633288876182 38.906499999999994 18.214499999999997 C 38.9065 19.03436671112381 38.24186671112381 19.698999999999998 37.422 19.698999999999998" stroke-linecap="round" />
</g>
</g>
</g>
</svg>